STARTFONT 2.1
COMMENT $ucs-fonts: 5x8.bdf,v 1.32 2006-01-05 20:03:17+00 mgk25 Rel $
COMMENT Send bug reports to Markus Kuhn <http://www.cl.cam.ac.uk/~mgk25/>
FONT -Misc-Fixed-Medium-R-Normal--8-80-75-75-C-50-ISO10646-1
SIZE 11 75 75
FONTBOUNDINGBOX 5 8 0 -1
STARTPROPERTIES 22
FONTNAME_REGISTRY ""
FOUNDRY "Misc"
FAMILY_NAME "Fixed"
WEIGHT_NAME "Medium"
SLANT "R"
SETWIDTH_NAME "Normal"
ADD_STYLE_NAME ""
PIXEL_SIZE 8
POINT_SIZE 80
RESOLUTION_X 75
RESOLUTION_Y 75
SPACING "C"
AVERAGE_WIDTH 50
CHARSET_REGISTRY "ISO10646"
CHARSET_ENCODING "1"
FONT_DESCENT 1
FONT_ASCENT 7
COPYRIGHT "Public domain font.  Share and enjoy."
DEFAULT_CHAR 0
_XMBDFED_INFO "Edited with xmbdfed 4.5."
CAP_HEIGHT 6
X_HEIGHT 4
ENDPROPERTIES
CHARS 1426
STARTCHAR char0
ENCODING 0
SWIDTH 436 0
DWIDTH 5 0
BBX 5 8 0 -1
BITMAP
00
A0
10
80
10
80
50
00
ENDCHAR
STARTCHAR space
ENCODING 32
SWIDTH 436 0
DWIDTH 5 0
BBX 5 8 0 -1
BITMAP
00
00
00
00
00
00
00
00
ENDCHAR
STARTCHAR exclam
ENCODING 33
SWIDTH 436 0
DWIDTH 5 0
BBX 5 8 0 -1
BITMAP
00
20
20
20
20
00
20
00
ENDCHAR
STARTCHAR quotedbl
ENCODING 34
SWIDTH 436 0
DWIDTH 5 0
BBX 5 8 0 -1
BITMAP
00
50
50
50
00
00
00
00
ENDCHAR
STARTCHAR numbersign
ENCODING 35
SWIDTH 436 0
DWIDTH 5 0
BBX 5 8 0 -1
BITMAP
50
50
F8
50
F8
50
50
00
ENDCHAR
STARTCHAR dollar
ENCODING 36
SWIDTH 436 0
DWIDTH 5 0
BBX 5 8 0 -1
BITMAP
20
70
A0
70
28
70
20
00
ENDCHAR
STARTCHAR percent
ENCODING 37
SWIDTH 436 0
DWIDTH 5 0
BBX 5 8 0 -1
BITMAP
00
40
50
20
50
10
00
00
ENDCHAR
STARTCHAR ampersand
ENCODING 38
SWIDTH 436 0
DWIDTH 5 0
BBX 5 8 0 -1
BITMAP
40
A0
A0
40
A0
A0
50
00
ENDCHAR
STARTCHAR quotesingle
ENCODING 39
SWIDTH 436 0
DWIDTH 5 0
BBX 5 8 0 -1
BITMAP
00
20
20
20
00
00
00
00
ENDCHAR
STARTCHAR parenleft
ENCODING 40
SWIDTH 436 0
DWIDTH 5 0
BBX 5 8 0 -1
BITMAP
00
20
40
40
40
40
20
00
ENDCHAR
STARTCHAR parenright
ENCODING 41
SWIDTH 436 0
DWIDTH 5 0
BBX 5 8 0 -1
BITMAP
00
40
20
20
20
20
40
00
ENDCHAR
STARTCHAR asterisk
ENCODING 42
SWIDTH 436 0
DWIDTH 5 0
BBX 5 8 0 -1
BITMAP
00
00
90
60
F0
60
90
00
ENDCHAR
STARTCHAR plus
ENCODING 43
SWIDTH 436 0
DWIDTH 5 0
BBX 5 8 0 -1
BITMAP
00
00
20
20
F8
20
20
00
ENDCHAR
STARTCHAR comma
ENCODING 44
SWIDTH 436 0
DWIDTH 5 0
BBX 5 8 0 -1
BITMAP
00
00
00
00
00
30
20
40
ENDCHAR
STARTCHAR hyphen
ENCODING 45
SWIDTH 436 0
DWIDTH 5 0
BBX 5 8 0 -1
BITMAP
00
00
00
00
F0
00
00
00
ENDCHAR
STARTCHAR period
ENCODING 46
SWIDTH 436 0
DWIDTH 5 0
BBX 5 8 0 -1
BITMAP
00
00
00
00
00
20
70
20
ENDCHAR
STARTCHAR slash
ENCODING 47
SWIDTH 436 0
DWIDTH 5 0
BBX 5 8 0 -1
BITMAP
00
10
10
20
40
80
80
00
ENDCHAR
STARTCHAR zero
ENCODING 48
SWIDTH 436 0
DWIDTH 5 0
BBX 5 8 0 -1
BITMAP
00
20
50
50
50
50
20
00
ENDCHAR
STARTCHAR one
ENCODING 49
SWIDTH 436 0
DWIDTH 5 0
BBX 5 8 0 -1
BITMAP
00
20
60
20
20
20
70
00
ENDCHAR
STARTCHAR two
ENCODING 50
SWIDTH 436 0
DWIDTH 5 0
BBX 5 8 0 -1
BITMAP
00
60
90
10
60
80
F0
00
ENDCHAR
STARTCHAR three
ENCODING 51
SWIDTH 436 0
DWIDTH 5 0
BBX 5 8 0 -1
BITMAP
00
F0
20
60
10
90
60
00
ENDCHAR
STARTCHAR four
ENCODING 52
SWIDTH 436 0
DWIDTH 5 0
BBX 5 8 0 -1
BITMAP
00
20
60
A0
F0
20
20
00
ENDCHAR
STARTCHAR five
ENCODING 53
SWIDTH 436 0
DWIDTH 5 0
BBX 5 8 0 -1
BITMAP
00
F0
80
E0
10
90
60
00
ENDCHAR
STARTCHAR six
ENCODING 54
SWIDTH 436 0
DWIDTH 5 0
BBX 5 8 0 -1
BITMAP
00
60
80
E0
90
90
60
00
ENDCHAR
STARTCHAR seven
ENCODING 55
SWIDTH 436 0
DWIDTH 5 0
BBX 5 8 0 -1
BITMAP
00
F0
10
20
20
40
40
00
ENDCHAR
STARTCHAR eight
ENCODING 56
SWIDTH 436 0
DWIDTH 5 0
BBX 5 8 0 -1
BITMAP
00
60
90
60
90
90
60
00
ENDCHAR
STARTCHAR nine
ENCODING 57
SWIDTH 436 0
DWIDTH 5 0
BBX 5 8 0 -1
BITMAP
00
60
90
90
70
10
60
00
ENDCHAR
STARTCHAR colon
ENCODING 58
SWIDTH 436 0
DWIDTH 5 0
BBX 5 8 0 -1
BITMAP
00
00
60
60
00
60
60
00
ENDCHAR
STARTCHAR semicolon
ENCODING 59
SWIDTH 436 0
DWIDTH 5 0
BBX 5 8 0 -1
BITMAP
00
00
30
30
00
30
20
40
ENDCHAR
STARTCHAR less
ENCODING 60
SWIDTH 436 0
DWIDTH 5 0
BBX 5 8 0 -1
BITMAP
00
10
20
40
40
20
10
00
ENDCHAR
STARTCHAR equal
ENCODING 61
SWIDTH 436 0
DWIDTH 5 0
BBX 5 8 0 -1
BITMAP
00
00
00
F0
00
F0
00
00
ENDCHAR
STARTCHAR greater
ENCODING 62
SWIDTH 436 0
DWIDTH 5 0
BBX 5 8 0 -1
BITMAP
00
40
20
10
10
20
40
00
ENDCHAR
STARTCHAR question
ENCODING 63
SWIDTH 436 0
DWIDTH 5 0
BBX 5 8 0 -1
BITMAP
00
20
50
10
20
00
20
00
ENDCHAR
STARTCHAR at
ENCODING 64
SWIDTH 436 0
DWIDTH 5 0
BBX 5 8 0 -1
BITMAP
30
48
98
A8
A8
90
40
30
ENDCHAR
STARTCHAR A
ENCODING 65
SWIDTH 436 0
DWIDTH 5 0
BBX 5 8 0 -1
BITMAP
00
60
90
90
F0
90
90
00
ENDCHAR
STARTCHAR B
ENCODING 66
SWIDTH 436 0
DWIDTH 5 0
BBX 5 8 0 -1
BITMAP
00
E0
90
E0
90
90
E0
00
ENDCHAR
STARTCHAR C
ENCODING 67
SWIDTH 436 0
DWIDTH 5 0
BBX 5 8 0 -1
BITMAP
00
60
90
80
80
90
60
00
ENDCHAR
STARTCHAR D
ENCODING 68
SWIDTH 436 0
DWIDTH 5 0
BBX 5 8 0 -1
BITMAP
00
E0
90
90
90
90
E0
00
ENDCHAR
STARTCHAR E
ENCODING 69
SWIDTH 436 0
DWIDTH 5 0
BBX 5 8 0 -1
BITMAP
00
F0
80
E0
80
80
F0
00
ENDCHAR
STARTCHAR F
ENCODING 70
SWIDTH 436 0
DWIDTH 5 0
BBX 5 8 0 -1
BITMAP
00
F0
80
E0
80
80
80
00
ENDCHAR
STARTCHAR G
ENCODING 71
SWIDTH 436 0
DWIDTH 5 0
BBX 5 8 0 -1
BITMAP
00
60
90
80
B0
90
60
00
ENDCHAR
STARTCHAR H
ENCODING 72
SWIDTH 436 0
DWIDTH 5 0
BBX 5 8 0 -1
BITMAP
00
90
90
F0
90
90
90
00
ENDCHAR
STARTCHAR I
ENCODING 73
SWIDTH 436 0
DWIDTH 5 0
BBX 5 8 0 -1
BITMAP
00
70
20
20
20
20
70
00
ENDCHAR
STARTCHAR J
ENCODING 74
SWIDTH 436 0
DWIDTH 5 0
BBX 5 8 0 -1
BITMAP
00
70
20
20
20
A0
40
00
ENDCHAR
STARTCHAR K
ENCODING 75
SWIDTH 436 0
DWIDTH 5 0
BBX 5 8 0 -1
BITMAP
00
90
A0
C0
A0
A0
90
00
ENDCHAR
STARTCHAR L
ENCODING 76
SWIDTH 436 0
DWIDTH 5 0
BBX 5 8 0 -1
BITMAP
00
80
80
80
80
80
F0
00
ENDCHAR
STARTCHAR M
ENCODING 77
SWIDTH 436 0
DWIDTH 5 0
BBX 5 8 0 -1
BITMAP
00
90
F0
F0
90
90
90
00
ENDCHAR
STARTCHAR N
ENCODING 78
SWIDTH 436 0
DWIDTH 5 0
BBX 5 8 0 -1
BITMAP
00
90
D0
F0
B0
B0
90
00
ENDCHAR
STARTCHAR O
ENCODING 79
SWIDTH 436 0
DWIDTH 5 0
BBX 5 8 0 -1
BITMAP
00
60
90
90
90
90
60
00
ENDCHAR
STARTCHAR P
ENCODING 80
SWIDTH 436 0
DWIDTH 5 0
BBX 5 8 0 -1
BITMAP
00
E0
90
90
E0
80
80
00
ENDCHAR
STARTCHAR Q
ENCODING 81
SWIDTH 436 0
DWIDTH 5 0
BBX 5 8 0 -1
BITMAP
00
60
90
90
D0
B0
60
10
ENDCHAR
STARTCHAR R
ENCODING 82
SWIDTH 436 0
DWIDTH 5 0
BBX 5 8 0 -1
BITMAP
00
E0
90
90
E0
90
90
00
ENDCHAR
STARTCHAR S
ENCODING 83
SWIDTH 436 0
DWIDTH 5 0
BBX 5 8 0 -1
BITMAP
00
60
90
40
20
90
60
00
ENDCHAR
STARTCHAR T
ENCODING 84
SWIDTH 436 0
DWIDTH 5 0
BBX 5 8 0 -1
BITMAP
00
70
20
20
20
20
20
00
ENDCHAR
STARTCHAR U
ENCODING 85
SWIDTH 436 0
DWIDTH 5 0
BBX 5 8 0 -1
BITMAP
00
90
90
90
90
90
60
00
ENDCHAR
STARTCHAR V
ENCODING 86
SWIDTH 436 0
DWIDTH 5 0
BBX 5 8 0 -1
BITMAP
00
90
90
90
90
60
60
00
ENDCHAR
STARTCHAR W
ENCODING 87
SWIDTH 436 0
DWIDTH 5 0
BBX 5 8 0 -1
BITMAP
00
90
90
90
F0
F0
90
00
ENDCHAR
STARTCHAR X
ENCODING 88
SWIDTH 436 0
DWIDTH 5 0
BBX 5 8 0 -1
BITMAP
00
90
90
60
60
90
90
00
ENDCHAR
STARTCHAR Y
ENCODING 89
SWIDTH 436 0
DWIDTH 5 0
BBX 5 8 0 -1
BITMAP
00
88
88
50
20
20
20
00
ENDCHAR
STARTCHAR Z
ENCODING 90
SWIDTH 436 0
DWIDTH 5 0
BBX 5 8 0 -1
BITMAP
00
F0
10
20
40
80
F0
00
ENDCHAR
STARTCHAR bracketleft
ENCODING 91
SWIDTH 436 0
DWIDTH 5 0
BBX 5 8 0 -1
BITMAP
00
70
40
40
40
40
70
00
ENDCHAR
STARTCHAR backslash
ENCODING 92
SWIDTH 436 0
DWIDTH 5 0
BBX 5 8 0 -1
BITMAP
00
80
80
40
20
10
10
00
ENDCHAR
STARTCHAR bracketright
ENCODING 93
SWIDTH 436 0
DWIDTH 5 0
BBX 5 8 0 -1
BITMAP
00
70
10
10
10
10
70
00
ENDCHAR
STARTCHAR asciicircum
ENCODING 94
SWIDTH 436 0
DWIDTH 5 0
BBX 5 8 0 -1
BITMAP
00
20
50
00
00
00
00
00
ENDCHAR
STARTCHAR underscore
ENCODING 95
SWIDTH 436 0
DWIDTH 5 0
BBX 5 8 0 -1
BITMAP
00
00
00
00
00
00
00
F0
ENDCHAR
STARTCHAR grave
ENCODING 96
SWIDTH 436 0
DWIDTH 5 0
BBX 5 8 0 -1
BITMAP
00
40
20
00
00
00
00
00
ENDCHAR
STARTCHAR a
ENCODING 97
SWIDTH 436 0
DWIDTH 5 0
BBX 5 8 0 -1
BITMAP
00
00
00
70
90
90
70
00
ENDCHAR
STARTCHAR b
ENCODING 98
SWIDTH 436 0
DWIDTH 5 0
BBX 5 8 0 -1
BITMAP
00
80
80
E0
90
90
E0
00
ENDCHAR
STARTCHAR c
ENCODING 99
SWIDTH 436 0
DWIDTH 5 0
BBX 5 8 0 -1
BITMAP
00
00
00
30
40
40
30
00
ENDCHAR
STARTCHAR d
ENCODING 100
SWIDTH 436 0
DWIDTH 5 0
BBX 5 8 0 -1
BITMAP
00
10
10
70
90
90
70
00
ENDCHAR
STARTCHAR e
ENCODING 101
SWIDTH 436 0
DWIDTH 5 0
BBX 5 8 0 -1
BITMAP
00
00
00
60
B0
C0
60
00
ENDCHAR
STARTCHAR f
ENCODING 102
SWIDTH 436 0
DWIDTH 5 0
BBX 5 8 0 -1
BITMAP
00
20
50
40
E0
40
40
00
ENDCHAR
STARTCHAR g
ENCODING 103
SWIDTH 436 0
DWIDTH 5 0
BBX 5 8 0 -1
BITMAP
00
00
00
60
90
70
10
60
ENDCHAR
STARTCHAR h
ENCODING 104
SWIDTH 436 0
DWIDTH 5 0
BBX 5 8 0 -1
BITMAP
00
80
80
E0
90
90
90
00
ENDCHAR
STARTCHAR i
ENCODING 105
SWIDTH 436 0
DWIDTH 5 0
BBX 5 8 0 -1
BITMAP
00
20
00
60
20
20
70
00
ENDCHAR
STARTCHAR j
ENCODING 106
SWIDTH 436 0
DWIDTH 5 0
BBX 5 8 0 -1
BITMAP
00
10
00
10
10
10
50
20
ENDCHAR
STARTCHAR k
ENCODING 107
SWIDTH 436 0
DWIDTH 5 0
BBX 5 8 0 -1
BITMAP
00
80
80
90
E0
90
90
00
ENDCHAR
STARTCHAR l
ENCODING 108
SWIDTH 436 0
DWIDTH 5 0
BBX 5 8 0 -1
BITMAP
00
60
20
20
20
20
70
00
ENDCHAR
STARTCHAR m
ENCODING 109
SWIDTH 436 0
DWIDTH 5 0
BBX 5 8 0 -1
BITMAP
00
00
00
D0
A8
A8
A8
00
ENDCHAR
STARTCHAR n
ENCODING 110
SWIDTH 436 0
DWIDTH 5 0
BBX 5 8 0 -1
BITMAP
00
00
00
E0
90
90
90
00
ENDCHAR
STARTCHAR o
ENCODING 111
SWIDTH 436 0
DWIDTH 5 0
BBX 5 8 0 -1
BITMAP
00
00
00
60
90
90
60
00
ENDCHAR
STARTCHAR p
ENCODING 112
SWIDTH 436 0
DWIDTH 5 0
BBX 5 8 0 -1
BITMAP
00
00
00
E0
90
E0
80
80
ENDCHAR
STARTCHAR q
ENCODING 113
SWIDTH 436 0
DWIDTH 5 0
BBX 5 8 0 -1
BITMAP
00
00
00
70
90
70
10
10
ENDCHAR
STARTCHAR r
ENCODING 114
SWIDTH 436 0
DWIDTH 5 0
BBX 5 8 0 -1
BITMAP
00
00
00
A0
D0
80
80
00
ENDCHAR
STARTCHAR s
ENCODING 115
SWIDTH 436 0
DWIDTH 5 0
BBX 5 8 0 -1
BITMAP
00
00
00
30
60
10
60
00
ENDCHAR
STARTCHAR t
ENCODING 116
SWIDTH 436 0
DWIDTH 5 0
BBX 5 8 0 -1
BITMAP
00
40
40
E0
40
50
20
00
ENDCHAR
STARTCHAR u
ENCODING 117
SWIDTH 436 0
DWIDTH 5 0
BBX 5 8 0 -1
BITMAP
00
00
00
90
90
90
70
00
ENDCHAR
STARTCHAR v
ENCODING 118
SWIDTH 436 0
DWIDTH 5 0
BBX 5 8 0 -1
BITMAP
00
00
00
50
50
50
20
00
ENDCHAR
STARTCHAR w
ENCODING 119
SWIDTH 436 0
DWIDTH 5 0
BBX 5 8 0 -1
BITMAP
00
00
00
88
A8
A8
50
00
ENDCHAR
STARTCHAR x
ENCODING 120
SWIDTH 436 0
DWIDTH 5 0
BBX 5 8 0 -1
BITMAP
00
00
00
90
60
60
90
00
ENDCHAR
STARTCHAR y
ENCODING 121
SWIDTH 436 0
DWIDTH 5 0
BBX 5 8 0 -1
BITMAP
00
00
00
90
90
70
90
60
ENDCHAR
STARTCHAR z
ENCODING 122
SWIDTH 436 0
DWIDTH 5 0
BBX 5 8 0 -1
BITMAP
00
00
00
F0
20
40
F0
00
ENDCHAR
STARTCHAR braceleft
ENCODING 123
SWIDTH 436 0
DWIDTH 5 0
BBX 5 8 0 -1
BITMAP
30
40
20
C0
20
40
30
00
ENDCHAR
STARTCHAR bar
ENCODING 124
SWIDTH 436 0
DWIDTH 5 0
BBX 5 8 0 -1
BITMAP
00
20
20
20
20
20
20
00
ENDCHAR
STARTCHAR braceright
ENCODING 125
SWIDTH 436 0
DWIDTH 5 0
BBX 5 8 0 -1
BITMAP
C0
20
40
30
40
20
C0
00
ENDCHAR
STARTCHAR asciitilde
ENCODING 126
SWIDTH 436 0
DWIDTH 5 0
BBX 5 8 0 -1
BITMAP
00
50
A0
00
00
00
00
00
ENDCHAR
STARTCHAR space
ENCODING 160
SWIDTH 436 0
DWIDTH 5 0
BBX 5 8 0 -1
BITMAP
00
00
00
00
00
00
00
00
ENDCHAR
STARTCHAR exclamdown
ENCODING 161
SWIDTH 436 0
DWIDTH 5 0
BBX 5 8 0 -1
BITMAP
00
20
00
20
20
20
20
00
ENDCHAR
STARTCHAR cent
ENCODING 162
SWIDTH 436 0
DWIDTH 5 0
BBX 5 8 0 -1
BITMAP
00
00
20
70
A0
A0
70
20
ENDCHAR
STARTCHAR sterling
ENCODING 163
SWIDTH 436 0
DWIDTH 5 0
BBX 5 8 0 -1
BITMAP
00
20
50
E0
40
50
A0
00
ENDCHAR
STARTCHAR currency
ENCODING 164
SWIDTH 436 0
DWIDTH 5 0
BBX 5 8 0 -1
BITMAP
00
00
88
70
50
70
88
00
ENDCHAR
STARTCHAR yen
ENCODING 165
SWIDTH 436 0
DWIDTH 5 0
BBX 5 8 0 -1
BITMAP
00
88
50
F8
20
F8
20
00
ENDCHAR
STARTCHAR brokenbar
ENCODING 166
SWIDTH 436 0
DWIDTH 5 0
BBX 5 8 0 -1
BITMAP
20
20
20
00
20
20
20
00
ENDCHAR
STARTCHAR section
ENCODING 167
SWIDTH 436 0
DWIDTH 5 0
BBX 5 8 0 -1
BITMAP
70
80
E0
90
70
10
E0
00
ENDCHAR
STARTCHAR dieresis
ENCODING 168
SWIDTH 436 0
DWIDTH 5 0
BBX 5 8 0 -1
BITMAP
00
50
00
00
00
00
00
00
ENDCHAR
STARTCHAR copyright
ENCODING 169
SWIDTH 436 0
DWIDTH 5 0
BBX 5 8 0 -1
BITMAP
00
70
A8
C8
C8
A8
70
00
ENDCHAR
STARTCHAR ordfeminine
ENCODING 170
SWIDTH 436 0
DWIDTH 5 0
BBX 5 8 0 -1
BITMAP
30
50
30
00
70
00
00
00
ENDCHAR
STARTCHAR guillemotleft
ENCODING 171
SWIDTH 436 0
DWIDTH 5 0
BBX 5 8 0 -1
BITMAP
00
00
00
50
A0
50
00
00
ENDCHAR
STARTCHAR logicalnot
ENCODING 172
SWIDTH 436 0
DWIDTH 5 0
BBX 5 8 0 -1
BITMAP
00
00
00
00
70
10
10
00
ENDCHAR
STARTCHAR hyphen
ENCODING 173
SWIDTH 436 0
DWIDTH 5 0
BBX 5 8 0 -1
BITMAP
00
00
00
00
70
00
00
00
ENDCHAR
STARTCHAR registered
ENCODING 174
SWIDTH 436 0
DWIDTH 5 0
BBX 5 8 0 -1
BITMAP
00
70
E8
D8
E8
D8
70
00
ENDCHAR
STARTCHAR macron
ENCODING 175
SWIDTH 436 0
DWIDTH 5 0
BBX 5 8 0 -1
BITMAP
00
70
00
00
00
00
00
00
ENDCHAR
STARTCHAR degree
ENCODING 176
SWIDTH 436 0
DWIDTH 5 0
BBX 5 8 0 -1
BITMAP
00
20
50
20
00
00
00
00
ENDCHAR
STARTCHAR plusminus
ENCODING 177
SWIDTH 436 0
DWIDTH 5 0
BBX 5 8 0 -1
BITMAP
00
00
20
70
20
00
70
00
ENDCHAR
STARTCHAR twosuperior
ENCODING 178
SWIDTH 436 0
DWIDTH 5 0
BBX 5 8 0 -1
BITMAP
20
50
10
20
70
00
00
00
ENDCHAR
STARTCHAR threesuperior
ENCODING 179
SWIDTH 436 0
DWIDTH 5 0
BBX 5 8 0 -1
BITMAP
60
10
60
10
60
00
00
00
ENDCHAR
STARTCHAR acute
ENCODING 180
SWIDTH 436 0
DWIDTH 5 0
BBX 5 8 0 -1
BITMAP
00
20
40
00
00
00
00
00
ENDCHAR
STARTCHAR mu
ENCODING 181
SWIDTH 436 0
DWIDTH 5 0
BBX 5 8 0 -1
BITMAP
00
00
00
90
90
90
E0
80
ENDCHAR
STARTCHAR paragraph
ENCODING 182
SWIDTH 436 0
DWIDTH 5 0
BBX 5 8 0 -1
BITMAP
00
78
E8
E8
68
28
28
00
ENDCHAR
STARTCHAR periodcentered
ENCODING 183
SWIDTH 436 0
DWIDTH 5 0
BBX 5 8 0 -1
BITMAP
00
00
00
00
20
00
00
00
ENDCHAR
STARTCHAR cedilla
ENCODING 184
SWIDTH 436 0
DWIDTH 5 0
BBX 5 8 0 -1
BITMAP
00
00
00
00
00
00
20
40
ENDCHAR
STARTCHAR onesuperior
ENCODING 185
SWIDTH 436 0
DWIDTH 5 0
BBX 5 8 0 -1
BITMAP
20
60
20
20
70
00
00
00
ENDCHAR
STARTCHAR ordmasculine
ENCODING 186
SWIDTH 436 0
DWIDTH 5 0
BBX 5 8 0 -1
BITMAP
20
50
20
00
70
00
00
00
ENDCHAR
STARTCHAR guillemotright
ENCODING 187
SWIDTH 436 0
DWIDTH 5 0
BBX 5 8 0 -1
BITMAP
00
00
00
A0
50
A0
00
00
ENDCHAR
STARTCHAR onequarter
ENCODING 188
SWIDTH 436 0
DWIDTH 5 0
BBX 5 8 0 -1
BITMAP
80
80
80
A0
60
F0
20
00
ENDCHAR
STARTCHAR onehalf
ENCODING 189
SWIDTH 436 0
DWIDTH 5 0
BBX 5 8 0 -1
BITMAP
80
80
A0
D0
10
20
70
00
ENDCHAR
STARTCHAR threequarters
ENCODING 190
SWIDTH 436 0
DWIDTH 5 0
BBX 5 8 0 -1
BITMAP
80
40
80
60
A0
F0
20
00
ENDCHAR
STARTCHAR questiondown
ENCODING 191
SWIDTH 436 0
DWIDTH 5 0
BBX 5 8 0 -1
BITMAP
00
20
00
20
40
50
20
00
ENDCHAR
STARTCHAR Agrave
ENCODING 192
SWIDTH 436 0
DWIDTH 5 0
BBX 5 8 0 -1
BITMAP
40
20
60
90
F0
90
90
00
ENDCHAR
STARTCHAR Aacute
ENCODING 193
SWIDTH 436 0
DWIDTH 5 0
BBX 5 8 0 -1
BITMAP
20
40
60
90
F0
90
90
00
ENDCHAR
STARTCHAR Acircumflex
ENCODING 194
SWIDTH 436 0
DWIDTH 5 0
BBX 5 8 0 -1
BITMAP
60
90
60
90
F0
90
90
00
ENDCHAR
STARTCHAR Atilde
ENCODING 195
SWIDTH 436 0
DWIDTH 5 0
BBX 5 8 0 -1
BITMAP
50
A0
60
90
F0
90
90
00
ENDCHAR
STARTCHAR Adieresis
ENCODING 196
SWIDTH 436 0
DWIDTH 5 0
BBX 5 8 0 -1
BITMAP
90
00
60
90
F0
90
90
00
ENDCHAR
STARTCHAR Aring
ENCODING 197
SWIDTH 436 0
DWIDTH 5 0
BBX 5 8 0 -1
BITMAP
60
90
60
90
F0
90
90
00
ENDCHAR
STARTCHAR AE
ENCODING 198
SWIDTH 436 0
DWIDTH 5 0
BBX 5 8 0 -1
BITMAP
00
70
A0
A0
F0
A0
B0
00
ENDCHAR
STARTCHAR Ccedilla
ENCODING 199
SWIDTH 436 0
DWIDTH 5 0
BBX 5 8 0 -1
BITMAP
00
60
90
80
80
90
60
40
ENDCHAR
STARTCHAR Egrave
ENCODING 200
SWIDTH 436 0
DWIDTH 5 0
BBX 5 8 0 -1
BITMAP
40
20
F0
80
E0
80
F0
00
ENDCHAR
STARTCHAR Eacute
ENCODING 201
SWIDTH 436 0
DWIDTH 5 0
BBX 5 8 0 -1
BITMAP
20
40
F0
80
E0
80
F0
00
ENDCHAR
STARTCHAR Ecircumflex
ENCODING 202
SWIDTH 436 0
DWIDTH 5 0
BBX 5 8 0 -1
BITMAP
60
90
F0
80
E0
80
F0
00
ENDCHAR
STARTCHAR Edieresis
ENCODING 203
SWIDTH 436 0
DWIDTH 5 0
BBX 5 8 0 -1
BITMAP
90
00
F0
80
E0
80
F0
00
ENDCHAR
STARTCHAR Igrave
ENCODING 204
SWIDTH 436 0
DWIDTH 5 0
BBX 5 8 0 -1
BITMAP
40
20
70
20
20
20
70
00
ENDCHAR
STARTCHAR Iacute
ENCODING 205
SWIDTH 436 0
DWIDTH 5 0
BBX 5 8 0 -1
BITMAP
10
20
70
20
20
20
70
00
ENDCHAR
STARTCHAR Icircumflex
ENCODING 206
SWIDTH 436 0
DWIDTH 5 0
BBX 5 8 0 -1
BITMAP
20
50
70
20
20
20
70
00
ENDCHAR
STARTCHAR Idieresis
ENCODING 207
SWIDTH 436 0
DWIDTH 5 0
BBX 5 8 0 -1
BITMAP
50
00
70
20
20
20
70
00
ENDCHAR
STARTCHAR Eth
ENCODING 208
SWIDTH 436 0
DWIDTH 5 0
BBX 5 8 0 -1
BITMAP
00
70
48
E8
48
48
70
00
ENDCHAR
STARTCHAR Ntilde
ENCODING 209
SWIDTH 436 0
DWIDTH 5 0
BBX 5 8 0 -1
BITMAP
50
A0
90
D0
B0
90
90
00
ENDCHAR
STARTCHAR Ograve
ENCODING 210
SWIDTH 436 0
DWIDTH 5 0
BBX 5 8 0 -1
BITMAP
40
20
60
90
90
90
60
00
ENDCHAR
STARTCHAR Oacute
ENCODING 211
SWIDTH 436 0
DWIDTH 5 0
BBX 5 8 0 -1
BITMAP
20
40
60
90
90
90
60
00
ENDCHAR
STARTCHAR Ocircumflex
ENCODING 212
SWIDTH 436 0
DWIDTH 5 0
BBX 5 8 0 -1
BITMAP
60
90
60
90
90
90
60
00
ENDCHAR
STARTCHAR Otilde
ENCODING 213
SWIDTH 436 0
DWIDTH 5 0
BBX 5 8 0 -1
BITMAP
50
A0
60
90
90
90
60
00
ENDCHAR
STARTCHAR Odieresis
ENCODING 214
SWIDTH 436 0
DWIDTH 5 0
BBX 5 8 0 -1
BITMAP
90
00
60
90
90
90
60
00
ENDCHAR
STARTCHAR multiply
ENCODING 215
SWIDTH 436 0
DWIDTH 5 0
BBX 5 8 0 -1
BITMAP
00
00
00
00
50
20
50
00
ENDCHAR
STARTCHAR Oslash
ENCODING 216
SWIDTH 436 0
DWIDTH 5 0
BBX 5 8 0 -1
BITMAP
00
70
B0
B0
D0
D0
E0
00
ENDCHAR
STARTCHAR Ugrave
ENCODING 217
SWIDTH 436 0
DWIDTH 5 0
BBX 5 8 0 -1
BITMAP
40
20
90
90
90
90
60
00
ENDCHAR
STARTCHAR Uacute
ENCODING 218
SWIDTH 436 0
DWIDTH 5 0
BBX 5 8 0 -1
BITMAP
20
40
90
90
90
90
60
00
ENDCHAR
STARTCHAR Ucircumflex
ENCODING 219
SWIDTH 436 0
DWIDTH 5 0
BBX 5 8 0 -1
BITMAP
60
90
90
90
90
90
60
00
ENDCHAR
STARTCHAR Udieresis
ENCODING 220
SWIDTH 436 0
DWIDTH 5 0
BBX 5 8 0 -1
BITMAP
90
00
90
90
90
90
60
00
ENDCHAR
STARTCHAR Yacute
ENCODING 221
SWIDTH 436 0
DWIDTH 5 0
BBX 5 8 0 -1
BITMAP
10
20
88
50
20
20
20
00
ENDCHAR
STARTCHAR Thorn
ENCODING 222
SWIDTH 436 0
DWIDTH 5 0
BBX 5 8 0 -1
BITMAP
00
80
E0
90
90
E0
80
00
ENDCHAR
STARTCHAR germandbls
ENCODING 223
SWIDTH 436 0
DWIDTH 5 0
BBX 5 8 0 -1
BITMAP
00
60
90
A0
A0
90
A0
00
ENDCHAR
STARTCHAR agrave
ENCODING 224
SWIDTH 436 0
DWIDTH 5 0
BBX 5 8 0 -1
BITMAP
40
20
00
70
90
90
70
00
ENDCHAR
STARTCHAR aacute
ENCODING 225
SWIDTH 436 0
DWIDTH 5 0
BBX 5 8 0 -1
BITMAP
20
40
00
70
90
90
70
00
ENDCHAR
STARTCHAR acircumflex
ENCODING 226
SWIDTH 436 0
DWIDTH 5 0
BBX 5 8 0 -1
BITMAP
20
50
00
70
90
90
70
00
ENDCHAR
STARTCHAR atilde
ENCODING 227
SWIDTH 436 0
DWIDTH 5 0
BBX 5 8 0 -1
BITMAP
50
A0
00
70
90
90
70
00
ENDCHAR
STARTCHAR adieresis
ENCODING 228
SWIDTH 436 0
DWIDTH 5 0
BBX 5 8 0 -1
BITMAP
00
50
00
70
90
90
70
00
ENDCHAR
STARTCHAR aring
ENCODING 229
SWIDTH 436 0
DWIDTH 5 0
BBX 5 8 0 -1
BITMAP
60
90
60
70
90
90
70
00
ENDCHAR
STARTCHAR ae
ENCODING 230
SWIDTH 436 0
DWIDTH 5 0
BBX 5 8 0 -1
BITMAP
00
00
00
F0
68
B0
78
00
ENDCHAR
STARTCHAR ccedilla
ENCODING 231
SWIDTH 436 0
DWIDTH 5 0
BBX 5 8 0 -1
BITMAP
00
00
00
30
40
40
30
20
ENDCHAR
STARTCHAR egrave
ENCODING 232
SWIDTH 436 0
DWIDTH 5 0
BBX 5 8 0 -1
BITMAP
40
20
00
60
B0
C0
60
00
ENDCHAR
STARTCHAR eacute
ENCODING 233
SWIDTH 436 0
DWIDTH 5 0
BBX 5 8 0 -1
BITMAP
20
40
00
60
B0
C0
60
00
ENDCHAR
STARTCHAR ecircumflex
ENCODING 234
SWIDTH 436 0
DWIDTH 5 0
BBX 5 8 0 -1
BITMAP
60
90
00
60
B0
C0
60
00
ENDCHAR
STARTCHAR edieresis
ENCODING 235
SWIDTH 436 0
DWIDTH 5 0
BBX 5 8 0 -1
BITMAP
00
50
00
60
B0
C0
60
00
ENDCHAR
STARTCHAR igrave
ENCODING 236
SWIDTH 436 0
DWIDTH 5 0
BBX 5 8 0 -1
BITMAP
40
20
00
60
20
20
70
00
ENDCHAR
STARTCHAR iacute
ENCODING 237
SWIDTH 436 0
DWIDTH 5 0
BBX 5 8 0 -1
BITMAP
10
20
00
60
20
20
70
00
ENDCHAR
STARTCHAR icircumflex
ENCODING 238
SWIDTH 436 0
DWIDTH 5 0
BBX 5 8 0 -1
BITMAP
20
50
00
60
20
20
70
00
ENDCHAR
STARTCHAR idieresis
ENCODING 239
SWIDTH 436 0
DWIDTH 5 0
BBX 5 8 0 -1
BITMAP
00
50
00
60
20
20
70
00
ENDCHAR
STARTCHAR eth
ENCODING 240
SWIDTH 436 0
DWIDTH 5 0
BBX 5 8 0 -1
BITMAP
A0
40
A0
10
70
90
60
00
ENDCHAR
STARTCHAR ntilde
ENCODING 241
SWIDTH 436 0
DWIDTH 5 0
BBX 5 8 0 -1
BITMAP
50
A0
00
E0
90
90
90
00
ENDCHAR
STARTCHAR ograve
ENCODING 242
SWIDTH 436 0
DWIDTH 5 0
BBX 5 8 0 -1
BITMAP
40
20
00
60
90
90
60
00
ENDCHAR
STARTCHAR oacute
ENCODING 243
SWIDTH 436 0
DWIDTH 5 0
BBX 5 8 0 -1
BITMAP
20
40
00
60
90
90
60
00
ENDCHAR
STARTCHAR ocircumflex
ENCODING 244
SWIDTH 436 0
DWIDTH 5 0
BBX 5 8 0 -1
BITMAP
60
90
00
60
90
90
60
00
ENDCHAR
STARTCHAR otilde
ENCODING 245
SWIDTH 436 0
DWIDTH 5 0
BBX 5 8 0 -1
BITMAP
50
A0
00
60
90
90
60
00
ENDCHAR
STARTCHAR odieresis
ENCODING 246
SWIDTH 436 0
DWIDTH 5 0
BBX 5 8 0 -1
BITMAP
00
90
00
60
90
90
60
00
ENDCHAR
STARTCHAR divide
ENCODING 247
SWIDTH 436 0
DWIDTH 5 0
BBX 5 8 0 -1
BITMAP
00
00
20
00
70
00
20
00
ENDCHAR
STARTCHAR oslash
ENCODING 248
SWIDTH 436 0
DWIDTH 5 0
BBX 5 8 0 -1
BITMAP
00
00
00
70
B0
D0
E0
00
ENDCHAR
STARTCHAR ugrave
ENCODING 249
SWIDTH 436 0
DWIDTH 5 0
BBX 5 8 0 -1
BITMAP
40
20
00
90
90
90
70
00
ENDCHAR
STARTCHAR uacute
ENCODING 250
SWIDTH 436 0
DWIDTH 5 0
BBX 5 8 0 -1
BITMAP
20
40
00
90
90
90
70
00
ENDCHAR
STARTCHAR ucircumflex
ENCODING 251
SWIDTH 436 0
DWIDTH 5 0
BBX 5 8 0 -1
BITMAP
60
90
00
90
90
90
70
00
ENDCHAR
STARTCHAR udieresis
ENCODING 252
SWIDTH 436 0
DWIDTH 5 0
BBX 5 8 0 -1
BITMAP
00
90
00
90
90
90
70
00
ENDCHAR
STARTCHAR yacute
ENCODING 253
SWIDTH 436 0
DWIDTH 5 0
BBX 5 8 0 -1
BITMAP
20
40
00
90
90
70
90
60
ENDCHAR
STARTCHAR thorn
ENCODING 254
SWIDTH 436 0
DWIDTH 5 0
BBX 5 8 0 -1
BITMAP
00
80
80
E0
90
E0
80
80
ENDCHAR
STARTCHAR ydieresis
ENCODING 255
SWIDTH 436 0
DWIDTH 5 0
BBX 5 8 0 -1
BITMAP
00
90
00
90
90
70
90
60
ENDCHAR
STARTCHAR Amacron
ENCODING 256
SWIDTH 436 0
DWIDTH 5 0
BBX 5 8 0 -1
BITMAP
F0
00
60
90
F0
90
90
00
ENDCHAR
STARTCHAR amacron
ENCODING 257
SWIDTH 436 0
DWIDTH 5 0
BBX 5 8 0 -1
BITMAP
00
F0
00
70
90
90
70
00
ENDCHAR
STARTCHAR Abreve
ENCODING 258
SWIDTH 436 0
DWIDTH 5 0
BBX 5 8 0 -1
BITMAP
90
60
60
90
F0
90
90
00
ENDCHAR
STARTCHAR abreve
ENCODING 259
SWIDTH 436 0
DWIDTH 5 0
BBX 5 8 0 -1
BITMAP
90
60
00
70
90
90
70
00
ENDCHAR
STARTCHAR Aogonek
ENCODING 260
SWIDTH 436 0
DWIDTH 5 0
BBX 5 8 0 -1
BITMAP
00
60
90
90
F0
90
90
30
ENDCHAR
STARTCHAR aogonek
ENCODING 261
SWIDTH 436 0
DWIDTH 5 0
BBX 5 8 0 -1
BITMAP
00
00
00
70
90
90
70
20
ENDCHAR
STARTCHAR Cacute
ENCODING 262
SWIDTH 436 0
DWIDTH 5 0
BBX 5 8 0 -1
BITMAP
20
40
60
90
80
90
60
00
ENDCHAR
STARTCHAR cacute
ENCODING 263
SWIDTH 436 0
DWIDTH 5 0
BBX 5 8 0 -1
BITMAP
10
20
00
30
40
40
30
00
ENDCHAR
STARTCHAR Ccircumflex
ENCODING 264
SWIDTH 436 0
DWIDTH 5 0
BBX 5 8 0 -1
BITMAP
60
90
60
90
80
90
60
00
ENDCHAR
STARTCHAR ccircumflex
ENCODING 265
SWIDTH 436 0
DWIDTH 5 0
BBX 5 8 0 -1
BITMAP
60
90
00
60
80
80
60
00
ENDCHAR
STARTCHAR Cdotaccent
ENCODING 266
SWIDTH 436 0
DWIDTH 5 0
BBX 5 8 0 -1
BITMAP
40
00
60
90
80
90
60
00
ENDCHAR
STARTCHAR cdotaccent
ENCODING 267
SWIDTH 436 0
DWIDTH 5 0
BBX 5 8 0 -1
BITMAP
00
20
00
30
40
40
30
00
ENDCHAR
STARTCHAR Ccaron
ENCODING 268
SWIDTH 436 0
DWIDTH 5 0
BBX 5 8 0 -1
BITMAP
90
60
60
90
80
90
60
00
ENDCHAR
STARTCHAR ccaron
ENCODING 269
SWIDTH 436 0
DWIDTH 5 0
BBX 5 8 0 -1
BITMAP
90
60
00
60
80
80
60
00
ENDCHAR
STARTCHAR Dcaron
ENCODING 270
SWIDTH 436 0
DWIDTH 5 0
BBX 5 8 0 -1
BITMAP
90
60
E0
90
90
90
E0
00
ENDCHAR
STARTCHAR dcaron
ENCODING 271
SWIDTH 436 0
DWIDTH 5 0
BBX 5 8 0 -1
BITMAP
A0
50
10
70
90
90
70
00
ENDCHAR
STARTCHAR Dcroat
ENCODING 272
SWIDTH 436 0
DWIDTH 5 0
BBX 5 8 0 -1
BITMAP
00
70
48
E8
48
48
70
00
ENDCHAR
STARTCHAR dcroat
ENCODING 273
SWIDTH 436 0
DWIDTH 5 0
BBX 5 8 0 -1
BITMAP
00
20
70
20
60
A0
60
00
ENDCHAR
STARTCHAR Emacron
ENCODING 274
SWIDTH 436 0
DWIDTH 5 0
BBX 5 8 0 -1
BITMAP
F0
00
F0
80
E0
80
F0
00
ENDCHAR
STARTCHAR emacron
ENCODING 275
SWIDTH 436 0
DWIDTH 5 0
BBX 5 8 0 -1
BITMAP
00
F0
00
60
B0
C0
60
00
ENDCHAR
STARTCHAR Ebreve
ENCODING 276
SWIDTH 436 0
DWIDTH 5 0
BBX 5 8 0 -1
BITMAP
90
60
F0
80
E0
80
F0
00
ENDCHAR
STARTCHAR ebreve
ENCODING 277
SWIDTH 436 0
DWIDTH 5 0
BBX 5 8 0 -1
BITMAP
90
60
00
60
B0
C0
60
00
ENDCHAR
STARTCHAR Edotaccent
ENCODING 278
SWIDTH 436 0
DWIDTH 5 0
BBX 5 8 0 -1
BITMAP
60
00
F0
80
E0
80
F0
00
ENDCHAR
STARTCHAR edotaccent
ENCODING 279
SWIDTH 436 0
DWIDTH 5 0
BBX 5 8 0 -1
BITMAP
00
60
00
60
B0
C0
60
00
ENDCHAR
STARTCHAR Eogonek
ENCODING 280
SWIDTH 436 0
DWIDTH 5 0
BBX 5 8 0 -1
BITMAP
00
F0
80
E0
80
80
F0
20
ENDCHAR
STARTCHAR eogonek
ENCODING 281
SWIDTH 436 0
DWIDTH 5 0
BBX 5 8 0 -1
BITMAP
00
00
00
60
B0
C0
60
20
ENDCHAR
STARTCHAR Ecaron
ENCODING 282
SWIDTH 436 0
DWIDTH 5 0
BBX 5 8 0 -1
BITMAP
90
60
F0
80
E0
80
F0
00
ENDCHAR
STARTCHAR ecaron
ENCODING 283
SWIDTH 436 0
DWIDTH 5 0
BBX 5 8 0 -1
BITMAP
90
60
00
60
B0
C0
60
00
ENDCHAR
STARTCHAR Gcircumflex
ENCODING 284
SWIDTH 436 0
DWIDTH 5 0
BBX 5 8 0 -1
BITMAP
60
90
70
80
B0
90
60
00
ENDCHAR
STARTCHAR gcircumflex
ENCODING 285
SWIDTH 436 0
DWIDTH 5 0
BBX 5 8 0 -1
BITMAP
60
90
00
60
90
70
10
60
ENDCHAR
STARTCHAR Gbreve
ENCODING 286
SWIDTH 436 0
DWIDTH 5 0
BBX 5 8 0 -1
BITMAP
90
60
70
80
B0
90
60
00
ENDCHAR
STARTCHAR gbreve
ENCODING 287
SWIDTH 436 0
DWIDTH 5 0
BBX 5 8 0 -1
BITMAP
90
60
00
60
90
70
10
60
ENDCHAR
STARTCHAR Gdotaccent
ENCODING 288
SWIDTH 436 0
DWIDTH 5 0
BBX 5 8 0 -1
BITMAP
60
00
70
80
B0
90
60
00
ENDCHAR
STARTCHAR gdotaccent
ENCODING 289
SWIDTH 436 0
DWIDTH 5 0
BBX 5 8 0 -1
BITMAP
00
60
00
60
90
70
10
60
ENDCHAR
STARTCHAR Gcommaaccent
ENCODING 290
SWIDTH 436 0
DWIDTH 5 0
BBX 5 8 0 -1
BITMAP
00
60
90
80
B0
90
60
20
ENDCHAR
STARTCHAR gcommaaccent
ENCODING 291
SWIDTH 436 0
DWIDTH 5 0
BBX 5 8 0 -1
BITMAP
60
40
00
60
90
70
10
60
ENDCHAR
STARTCHAR Hcircumflex
ENCODING 292
SWIDTH 436 0
DWIDTH 5 0
BBX 5 8 0 -1
BITMAP
60
90
00
90
F0
90
90
00
ENDCHAR
STARTCHAR hcircumflex
ENCODING 293
SWIDTH 436 0
DWIDTH 5 0
BBX 5 8 0 -1
BITMAP
60
90
80
E0
90
90
90
00
ENDCHAR
STARTCHAR Hbar
ENCODING 294
SWIDTH 436 0
DWIDTH 5 0
BBX 5 8 0 -1
BITMAP
00
50
F8
50
70
50
50
00
ENDCHAR
STARTCHAR hbar
ENCODING 295
SWIDTH 436 0
DWIDTH 5 0
BBX 5 8 0 -1
BITMAP
00
40
F0
40
70
48
48
00
ENDCHAR
STARTCHAR Itilde
ENCODING 296
SWIDTH 436 0
DWIDTH 5 0
BBX 5 8 0 -1
BITMAP
50
A0
E0
40
40
40
E0
00
ENDCHAR
STARTCHAR itilde
ENCODING 297
SWIDTH 436 0
DWIDTH 5 0
BBX 5 8 0 -1
BITMAP
50
A0
00
C0
40
40
E0
00
ENDCHAR
STARTCHAR Imacron
ENCODING 298
SWIDTH 436 0
DWIDTH 5 0
BBX 5 8 0 -1
BITMAP
70
00
70
20
20
20
70
00
ENDCHAR
STARTCHAR imacron
ENCODING 299
SWIDTH 436 0
DWIDTH 5 0
BBX 5 8 0 -1
BITMAP
00
70
00
60
20
20
70
00
ENDCHAR
STARTCHAR Ibreve
ENCODING 300
SWIDTH 436 0
DWIDTH 5 0
BBX 5 8 0 -1
BITMAP
90
60
70
20
20
20
70
00
ENDCHAR
STARTCHAR ibreve
ENCODING 301
SWIDTH 436 0
DWIDTH 5 0
BBX 5 8 0 -1
BITMAP
90
60
00
60
20
20
70
00
ENDCHAR
STARTCHAR Iogonek
ENCODING 302
SWIDTH 436 0
DWIDTH 5 0
BBX 5 8 0 -1
BITMAP
00
70
20
20
20
20
70
10
ENDCHAR
STARTCHAR iogonek
ENCODING 303
SWIDTH 436 0
DWIDTH 5 0
BBX 5 8 0 -1
BITMAP
00
20
00
60
20
20
70
10
ENDCHAR
STARTCHAR Idotaccent
ENCODING 304
SWIDTH 436 0
DWIDTH 5 0
BBX 5 8 0 -1
BITMAP
20
00
70
20
20
20
70
00
ENDCHAR
STARTCHAR dotlessi
ENCODING 305
SWIDTH 436 0
DWIDTH 5 0
BBX 5 8 0 -1
BITMAP
00
00
00
60
20
20
70
00
ENDCHAR
STARTCHAR IJ
ENCODING 306
SWIDTH 436 0
DWIDTH 5 0
BBX 5 8 0 -1
BITMAP
00
B0
90
90
90
D0
A0
00
ENDCHAR
STARTCHAR ij
ENCODING 307
SWIDTH 436 0
DWIDTH 5 0
BBX 5 8 0 -1
BITMAP
00
50
00
50
50
50
50
20
ENDCHAR
STARTCHAR Jcircumflex
ENCODING 308
SWIDTH 436 0
DWIDTH 5 0
BBX 5 8 0 -1
BITMAP
20
50
70
20
20
A0
40
00
ENDCHAR
STARTCHAR jcircumflex
ENCODING 309
SWIDTH 436 0
DWIDTH 5 0
BBX 5 8 0 -1
BITMAP
20
50
00
20
20
20
A0
40
ENDCHAR
STARTCHAR Kcommaaccent
ENCODING 310
SWIDTH 436 0
DWIDTH 5 0
BBX 5 8 0 -1
BITMAP
00
48
50
60
50
50
48
80
ENDCHAR
STARTCHAR kcommaaccent
ENCODING 311
SWIDTH 436 0
DWIDTH 5 0
BBX 5 8 0 -1
BITMAP
00
40
40
48
70
48
48
80
ENDCHAR
STARTCHAR kgreenlandic
ENCODING 312
SWIDTH 436 0
DWIDTH 5 0
BBX 5 8 0 -1
BITMAP
00
00
00
50
60
50
50
00
ENDCHAR
STARTCHAR Lacute
ENCODING 313
SWIDTH 436 0
DWIDTH 5 0
BBX 5 8 0 -1
BITMAP
10
20
80
80
80
80
F0
00
ENDCHAR
STARTCHAR lacute
ENCODING 314
SWIDTH 436 0
DWIDTH 5 0
BBX 5 8 0 -1
BITMAP
10
20
60
20
20
20
70
00
ENDCHAR
STARTCHAR Lcommaaccent
ENCODING 315
SWIDTH 436 0
DWIDTH 5 0
BBX 5 8 0 -1
BITMAP
00
80
80
80
80
80
F0
20
ENDCHAR
STARTCHAR lcommaaccent
ENCODING 316
SWIDTH 436 0
DWIDTH 5 0
BBX 5 8 0 -1
BITMAP
00
60
20
20
20
20
70
20
ENDCHAR
STARTCHAR Lcaron
ENCODING 317
SWIDTH 436 0
DWIDTH 5 0
BBX 5 8 0 -1
BITMAP
50
20
80
80
80
80
F0
00
ENDCHAR
STARTCHAR lcaron
ENCODING 318
SWIDTH 436 0
DWIDTH 5 0
BBX 5 8 0 -1
BITMAP
50
20
60
20
20
20
70
00
ENDCHAR
STARTCHAR Ldot
ENCODING 319
SWIDTH 436 0
DWIDTH 5 0
BBX 5 8 0 -1
BITMAP
00
80
80
A0
80
80
F0
00
ENDCHAR
STARTCHAR ldot
ENCODING 320
SWIDTH 436 0
DWIDTH 5 0
BBX 5 8 0 -1
BITMAP
00
C0
40
50
40
40
E0
00
ENDCHAR
STARTCHAR Lslash
ENCODING 321
SWIDTH 436 0
DWIDTH 5 0
BBX 5 8 0 -1
BITMAP
00
40
60
C0
40
40
78
00
ENDCHAR
STARTCHAR lslash
ENCODING 322
SWIDTH 436 0
DWIDTH 5 0
BBX 5 8 0 -1
BITMAP
00
60
20
30
60
20
70
00
ENDCHAR
STARTCHAR Nacute
ENCODING 323
SWIDTH 436 0
DWIDTH 5 0
BBX 5 8 0 -1
BITMAP
20
40
90
D0
B0
90
90
00
ENDCHAR
STARTCHAR nacute
ENCODING 324
SWIDTH 436 0
DWIDTH 5 0
BBX 5 8 0 -1
BITMAP
20
40
00
E0
90
90
90
00
ENDCHAR
STARTCHAR Ncommaaccent
ENCODING 325
SWIDTH 436 0
DWIDTH 5 0
BBX 5 8 0 -1
BITMAP
00
90
D0
F0
B0
B0
90
40
ENDCHAR
STARTCHAR ncommaaccent
ENCODING 326
SWIDTH 436 0
DWIDTH 5 0
BBX 5 8 0 -1
BITMAP
00
00
00
E0
90
90
90
40
ENDCHAR
STARTCHAR Ncaron
ENCODING 327
SWIDTH 436 0
DWIDTH 5 0
BBX 5 8 0 -1
BITMAP
90
60
90
D0
B0
90
90
00
ENDCHAR
STARTCHAR ncaron
ENCODING 328
SWIDTH 436 0
DWIDTH 5 0
BBX 5 8 0 -1
BITMAP
90
60
00
E0
90
90
90
00
ENDCHAR
STARTCHAR napostrophe
ENCODING 329
SWIDTH 436 0
DWIDTH 5 0
BBX 5 8 0 -1
BITMAP
C0
40
80
30
28
28
28
00
ENDCHAR
STARTCHAR Eng
ENCODING 330
SWIDTH 436 0
DWIDTH 5 0
BBX 5 8 0 -1
BITMAP
00
90
D0
F0
B0
B0
90
20
ENDCHAR
STARTCHAR eng
ENCODING 331
SWIDTH 436 0
DWIDTH 5 0
BBX 5 8 0 -1
BITMAP
00
00
00
E0
90
90
90
20
ENDCHAR
STARTCHAR Omacron
ENCODING 332
SWIDTH 436 0
DWIDTH 5 0
BBX 5 8 0 -1
BITMAP
F0
00
60
90
90
90
60
00
ENDCHAR
STARTCHAR omacron
ENCODING 333
SWIDTH 436 0
DWIDTH 5 0
BBX 5 8 0 -1
BITMAP
00
F0
00
60
90
90
60
00
ENDCHAR
STARTCHAR Obreve
ENCODING 334
SWIDTH 436 0
DWIDTH 5 0
BBX 5 8 0 -1
BITMAP
90
60
60
90
90
90
60
00
ENDCHAR
STARTCHAR obreve
ENCODING 335
SWIDTH 436 0
DWIDTH 5 0
BBX 5 8 0 -1
BITMAP
90
60
00
60
90
90
60
00
ENDCHAR
STARTCHAR Ohungarumlaut
ENCODING 336
SWIDTH 436 0
DWIDTH 5 0
BBX 5 8 0 -1
BITMAP
48
90
30
48
48
48
30
00
ENDCHAR
STARTCHAR ohungarumlaut
ENCODING 337
SWIDTH 436 0
DWIDTH 5 0
BBX 5 8 0 -1
BITMAP
48
90
00
30
48
48
30
00
ENDCHAR
STARTCHAR OE
ENCODING 338
SWIDTH 436 0
DWIDTH 5 0
BBX 5 8 0 -1
BITMAP
00
70
A0
B0
A0
A0
70
00
ENDCHAR
STARTCHAR oe
ENCODING 339
SWIDTH 436 0
DWIDTH 5 0
BBX 5 8 0 -1
BITMAP
00
00
00
70
A8
B0
78
00
ENDCHAR
STARTCHAR Racute
ENCODING 340
SWIDTH 436 0
DWIDTH 5 0
BBX 5 8 0 -1
BITMAP
20
40
E0
90
E0
90
90
00
ENDCHAR
STARTCHAR racute
ENCODING 341
SWIDTH 436 0
DWIDTH 5 0
BBX 5 8 0 -1
BITMAP
20
40
00
A0
D0
80
80
00
ENDCHAR
STARTCHAR Rcommaaccent
ENCODING 342
SWIDTH 436 0
DWIDTH 5 0
BBX 5 8 0 -1
BITMAP
00
E0
90
90
E0
90
90
20
ENDCHAR
STARTCHAR rcommaaccent
ENCODING 343
SWIDTH 436 0
DWIDTH 5 0
BBX 5 8 0 -1
BITMAP
00
00
00
50
68
40
40
80
ENDCHAR
STARTCHAR Rcaron
ENCODING 344
SWIDTH 436 0
DWIDTH 5 0
BBX 5 8 0 -1
BITMAP
90
60
E0
90
E0
90
90
00
ENDCHAR
STARTCHAR rcaron
ENCODING 345
SWIDTH 436 0
DWIDTH 5 0
BBX 5 8 0 -1
BITMAP
90
60
00
A0
D0
80
80
00
ENDCHAR
STARTCHAR Sacute
ENCODING 346
SWIDTH 436 0
DWIDTH 5 0
BBX 5 8 0 -1
BITMAP
20
40
70
80
60
10
E0
00
ENDCHAR
STARTCHAR sacute
ENCODING 347
SWIDTH 436 0
DWIDTH 5 0
BBX 5 8 0 -1
BITMAP
10
20
00
30
60
10
60
00
ENDCHAR
STARTCHAR Scircumflex
ENCODING 348
SWIDTH 436 0
DWIDTH 5 0
BBX 5 8 0 -1
BITMAP
60
90
70
80
60
10
E0
00
ENDCHAR
STARTCHAR scircumflex
ENCODING 349
SWIDTH 436 0
DWIDTH 5 0
BBX 5 8 0 -1
BITMAP
20
50
00
30
60
10
60
00
ENDCHAR
STARTCHAR Scedilla
ENCODING 350
SWIDTH 436 0
DWIDTH 5 0
BBX 5 8 0 -1
BITMAP
00
60
90
40
20
90
60
20
ENDCHAR
STARTCHAR scedilla
ENCODING 351
SWIDTH 436 0
DWIDTH 5 0
BBX 5 8 0 -1
BITMAP
00
00
00
30
60
10
60
20
ENDCHAR
STARTCHAR Scaron
ENCODING 352
SWIDTH 436 0
DWIDTH 5 0
BBX 5 8 0 -1
BITMAP
90
60
70
80
60
10
E0
00
ENDCHAR
STARTCHAR scaron
ENCODING 353
SWIDTH 436 0
DWIDTH 5 0
BBX 5 8 0 -1
BITMAP
50
20
00
30
60
10
60
00
ENDCHAR
STARTCHAR Tcommaaccent
ENCODING 354
SWIDTH 436 0
DWIDTH 5 0
BBX 5 8 0 -1
BITMAP
00
70
20
20
20
20
20
40
ENDCHAR
STARTCHAR tcommaaccent
ENCODING 355
SWIDTH 436 0
DWIDTH 5 0
BBX 5 8 0 -1
BITMAP
00
40
40
E0
40
50
20
40
ENDCHAR
STARTCHAR Tcaron
ENCODING 356
SWIDTH 436 0
DWIDTH 5 0
BBX 5 8 0 -1
BITMAP
50
20
70
20
20
20
20
00
ENDCHAR
STARTCHAR tcaron
ENCODING 357
SWIDTH 436 0
DWIDTH 5 0
BBX 5 8 0 -1
BITMAP
A0
40
40
E0
40
50
20
00
ENDCHAR
STARTCHAR Tbar
ENCODING 358
SWIDTH 436 0
DWIDTH 5 0
BBX 5 8 0 -1
BITMAP
00
70
20
70
20
20
20
00
ENDCHAR
STARTCHAR tbar
ENCODING 359
SWIDTH 436 0
DWIDTH 5 0
BBX 5 8 0 -1
BITMAP
40
E0
40
E0
40
50
20
00
ENDCHAR
STARTCHAR Utilde
ENCODING 360
SWIDTH 436 0
DWIDTH 5 0
BBX 5 8 0 -1
BITMAP
50
A0
00
90
90
90
60
00
ENDCHAR
STARTCHAR utilde
ENCODING 361
SWIDTH 436 0
DWIDTH 5 0
BBX 5 8 0 -1
BITMAP
50
A0
00
90
90
90
70
00
ENDCHAR
STARTCHAR Umacron
ENCODING 362
SWIDTH 436 0
DWIDTH 5 0
BBX 5 8 0 -1
BITMAP
F0
00
90
90
90
90
60
00
ENDCHAR
STARTCHAR umacron
ENCODING 363
SWIDTH 436 0
DWIDTH 5 0
BBX 5 8 0 -1
BITMAP
00
F0
00
90
90
90
70
00
ENDCHAR
STARTCHAR Ubreve
ENCODING 364
SWIDTH 436 0
DWIDTH 5 0
BBX 5 8 0 -1
BITMAP
90
60
00
90
90
90
60
00
ENDCHAR
STARTCHAR ubreve
ENCODING 365
SWIDTH 436 0
DWIDTH 5 0
BBX 5 8 0 -1
BITMAP
90
60
00
90
90
90
70
00
ENDCHAR
STARTCHAR Uring
ENCODING 366
SWIDTH 436 0
DWIDTH 5 0
BBX 5 8 0 -1
BITMAP
20
50
20
90
90
90
60
00
ENDCHAR
STARTCHAR uring
ENCODING 367
SWIDTH 436 0
DWIDTH 5 0
BBX 5 8 0 -1
BITMAP
20
50
20
90
90
90
70
00
ENDCHAR
STARTCHAR Uhungarumlaut
ENCODING 368
SWIDTH 436 0
DWIDTH 5 0
BBX 5 8 0 -1
BITMAP
48
90
00
48
48
48
30
00
ENDCHAR
STARTCHAR uhungarumlaut
ENCODING 369
SWIDTH 436 0
DWIDTH 5 0
BBX 5 8 0 -1
BITMAP
48
90
00
48
48
48
38
00
ENDCHAR
STARTCHAR Uogonek
ENCODING 370
SWIDTH 436 0
DWIDTH 5 0
BBX 5 8 0 -1
BITMAP
00
90
90
90
90
90
60
20
ENDCHAR
STARTCHAR uogonek
ENCODING 371
SWIDTH 436 0
DWIDTH 5 0
BBX 5 8 0 -1
BITMAP
00
00
00
90
90
90
70
20
ENDCHAR
STARTCHAR Wcircumflex
ENCODING 372
SWIDTH 436 0
DWIDTH 5 0
BBX 5 8 0 -1
BITMAP
60
00
90
90
F0
F0
90
00
ENDCHAR
STARTCHAR wcircumflex
ENCODING 373
SWIDTH 436 0
DWIDTH 5 0
BBX 5 8 0 -1
BITMAP
20
50
00
88
A8
A8
50
00
ENDCHAR
STARTCHAR Ycircumflex
ENCODING 374
SWIDTH 436 0
DWIDTH 5 0
BBX 5 8 0 -1
BITMAP
20
50
00
50
50
20
20
00
ENDCHAR
STARTCHAR ycircumflex
ENCODING 375
SWIDTH 436 0
DWIDTH 5 0
BBX 5 8 0 -1
BITMAP
60
90
00
90
90
70
90
60
ENDCHAR
STARTCHAR Ydieresis
ENCODING 376
SWIDTH 436 0
DWIDTH 5 0
BBX 5 8 0 -1
BITMAP
50
00
88
50
20
20
20
00
ENDCHAR
STARTCHAR Zacute
ENCODING 377
SWIDTH 436 0
DWIDTH 5 0
BBX 5 8 0 -1
BITMAP
20
40
F0
20
40
80
F0
00
ENDCHAR
STARTCHAR zacute
ENCODING 378
SWIDTH 436 0
DWIDTH 5 0
BBX 5 8 0 -1
BITMAP
20
40
00
F0
20
40
F0
00
ENDCHAR
STARTCHAR Zdotaccent
ENCODING 379
SWIDTH 436 0
DWIDTH 5 0
BBX 5 8 0 -1
BITMAP
60
00
F0
20
40
80
F0
00
ENDCHAR
STARTCHAR zdotaccent
ENCODING 380
SWIDTH 436 0
DWIDTH 5 0
BBX 5 8 0 -1
BITMAP
00
60
00
F0
20
40
F0
00
ENDCHAR
STARTCHAR Zcaron
ENCODING 381
SWIDTH 436 0
DWIDTH 5 0
BBX 5 8 0 -1
BITMAP
90
60
F0
20
40
80
F0
00
ENDCHAR
STARTCHAR zcaron
ENCODING 382
SWIDTH 436 0
DWIDTH 5 0
BBX 5 8 0 -1
BITMAP
90
60
00
F0
20
40
F0
00
ENDCHAR
STARTCHAR longs
ENCODING 383
SWIDTH 436 0
DWIDTH 5 0
BBX 5 8 0 -1
BITMAP
00
20
50
40
C0
40
40
00
ENDCHAR
ENDFONT
